<svg width="16" height="16" viewBox="0 0 16 16" fill="none" xmlns="http://www.w3.org/2000/svg">
<path d="M5.80671 5.13995L7.33337 3.60662V9.99995C7.33337 10.1768 7.40361 10.3463 7.52864 10.4714C7.65366 10.5964 7.82323 10.6666 8.00004 10.6666C8.17685 10.6666 8.34642 10.5964 8.47145 10.4714C8.59647 10.3463 8.66671 10.1768 8.66671 9.99995V3.60662L10.1934 5.13995C10.2553 5.20244 10.3291 5.25203 10.4103 5.28588C10.4916 5.31972 10.5787 5.33715 10.6667 5.33715C10.7547 5.33715 10.8419 5.31972 10.9231 5.28588C11.0043 5.25203 11.0781 5.20244 11.14 5.13995C11.2025 5.07798 11.2521 5.00424 11.286 4.923C11.3198 4.84176 11.3372 4.75463 11.3372 4.66662C11.3372 4.57861 11.3198 4.49147 11.286 4.41023C11.2521 4.32899 11.2025 4.25526 11.14 4.19328L8.47337 1.52662C8.40997 1.46592 8.33521 1.41835 8.25337 1.38662C8.09107 1.31994 7.90902 1.31994 7.74671 1.38662C7.66487 1.41835 7.59011 1.46592 7.52671 1.52662L4.86004 4.19328C4.79788 4.25544 4.74857 4.32924 4.71493 4.41045C4.68129 4.49167 4.66398 4.57871 4.66398 4.66662C4.66398 4.75452 4.68129 4.84157 4.71493 4.92278C4.74857 5.004 4.79788 5.07779 4.86004 5.13995C4.9222 5.20211 4.99599 5.25142 5.07721 5.28506C5.15842 5.3187 5.24547 5.33601 5.33337 5.33601C5.42128 5.33601 5.50833 5.3187 5.58954 5.28506C5.67076 5.25142 5.74455 5.20211 5.80671 5.13995ZM14 7.99995C13.8232 7.99995 13.6537 8.07019 13.5286 8.19521C13.4036 8.32024 13.3334 8.48981 13.3334 8.66662V12.6666C13.3334 12.8434 13.2631 13.013 13.1381 13.138C13.0131 13.263 12.8435 13.3333 12.6667 13.3333H3.33337C3.15656 13.3333 2.98699 13.263 2.86197 13.138C2.73695 13.013 2.66671 12.8434 2.66671 12.6666V8.66662C2.66671 8.48981 2.59647 8.32024 2.47145 8.19521C2.34642 8.07019 2.17685 7.99995 2.00004 7.99995C1.82323 7.99995 1.65366 8.07019 1.52864 8.19521C1.40361 8.32024 1.33337 8.48981 1.33337 8.66662V12.6666C1.33337 13.1971 1.54409 13.7058 1.91916 14.0808C2.29423 14.4559 2.80294 14.6666 3.33337 14.6666H12.6667C13.1971 14.6666 13.7058 14.4559 14.0809 14.0808C14.456 13.7058 14.6667 13.1971 14.6667 12.6666V8.66662C14.6667 8.48981 14.5965 8.32024 14.4714 8.19521C14.3464 8.07019 14.1769 7.99995 14 7.99995Z" fill="#0061FF"/>
</svg>
