<svg width="33" height="34" viewBox="0 0 33 34" fill="none" xmlns="http://www.w3.org/2000/svg">
<path d="M19.5395 31.2739C14.7188 31.2518 7.46115 31.3936 4.68748 31.4512L4.16908 30.9461C3.6745 30.4529 3.2819 29.8672 3.01367 29.2224C2.74545 28.5775 2.60687 27.8862 2.60584 27.1877C2.60481 26.4893 2.74136 25.7975 3.00768 25.1519C3.274 24.5063 3.66488 23.9194 4.15801 23.4248C4.65113 22.9302 5.23684 22.5376 5.8817 22.2694C6.52655 22.0012 7.21793 21.8626 7.91634 21.8616C8.61475 21.8605 9.30653 21.9971 9.95218 22.2634C10.5978 22.5297 11.1847 22.9206 11.6793 23.4137L19.5395 31.2739Z" fill="#FF6700"/>
<path d="M28.8131 9.60856C28.3191 10.1042 27.7321 10.4975 27.0859 10.7659C26.4396 11.0343 25.7467 11.1724 25.0469 11.1724C24.3471 11.1724 23.6542 11.0343 23.0079 10.7659C22.3616 10.4975 21.7747 10.1042 21.2807 9.60856L13.4382 1.74836C18.2589 1.77051 25.5033 1.63315 28.2858 1.57112L28.8131 2.09396C29.8087 3.09089 30.368 4.44227 30.368 5.85126C30.368 7.26025 29.8087 8.61164 28.8131 9.60856Z" fill="#FF6700"/>
<path d="M23.9038 31.4406L1.56382 9.09616C1.06814 8.60219 0.674852 8.01525 0.406496 7.36896C0.138139 6.72268 0 6.02977 0 5.32999C0 4.63021 0.138139 3.9373 0.406496 3.29102C0.674852 2.64474 1.06814 2.05779 1.56382 1.56382C2.05779 1.06814 2.64474 0.674852 3.29102 0.406495C3.9373 0.138139 4.63021 0 5.32999 0C6.02977 0 6.72268 0.138139 7.36896 0.406495C8.01525 0.674852 8.60219 1.06814 9.09616 1.56382L31.4362 23.9083C31.9319 24.4022 32.3252 24.9892 32.5935 25.6355C32.8619 26.2818 33 26.9747 33 27.6744C33 28.3742 32.8619 29.0671 32.5935 29.7134C32.3252 30.3597 31.9319 30.9466 31.4362 31.4406C30.9422 31.9363 30.3553 32.3296 29.709 32.5979C29.0627 32.8663 28.3698 33.0044 27.67 33.0044C26.9702 33.0044 26.2773 32.8663 25.631 32.5979C24.9848 32.3296 24.3978 31.9363 23.9038 31.4406Z" fill="#9EA8BA"/>
</svg>
