<svg width="26" height="26" viewBox="0 0 26 26" fill="none" xmlns="http://www.w3.org/2000/svg">
<path d="M13.7692 12.2309C13.6662 12.1322 13.5447 12.0549 13.4117 12.0034C13.148 11.895 12.8521 11.895 12.5884 12.0034C12.4554 12.0549 12.3339 12.1322 12.2309 12.2309L10.0642 14.3975C9.86021 14.6015 9.74561 14.8782 9.74561 15.1667C9.74561 15.4552 9.86021 15.7319 10.0642 15.9359C10.2682 16.1398 10.5449 16.2545 10.8334 16.2545C11.1219 16.2545 11.3985 16.1398 11.6025 15.9359L11.9167 15.6109V18.4167C11.9167 18.704 12.0308 18.9796 12.234 19.1827C12.4372 19.3859 12.7127 19.5 13 19.5C13.2874 19.5 13.5629 19.3859 13.7661 19.1827C13.9692 18.9796 14.0834 18.704 14.0834 18.4167V15.6109L14.3975 15.9359C14.4983 16.0374 14.6181 16.118 14.7501 16.173C14.8821 16.228 15.0237 16.2563 15.1667 16.2563C15.3097 16.2563 15.4513 16.228 15.5833 16.173C15.7153 16.118 15.8352 16.0374 15.9359 15.9359C16.0374 15.8351 16.118 15.7153 16.173 15.5833C16.228 15.4513 16.2563 15.3097 16.2563 15.1667C16.2563 15.0237 16.228 14.8821 16.173 14.7501C16.118 14.618 16.0374 14.4982 15.9359 14.3975L13.7692 12.2309ZM21.6667 9.68502C21.6554 9.5855 21.6336 9.48745 21.6017 9.39252V9.29502C21.5496 9.18363 21.4801 9.08124 21.3959 8.99169L14.8959 2.49169C14.8063 2.40742 14.7039 2.33794 14.5925 2.28585H14.4842C14.3789 2.22952 14.2657 2.18935 14.1484 2.16669H7.58337C6.72142 2.16669 5.89477 2.5091 5.28528 3.11859C4.67578 3.72808 4.33337 4.55473 4.33337 5.41669V20.5834C4.33337 21.4453 4.67578 22.272 5.28528 22.8815C5.89477 23.4909 6.72142 23.8334 7.58337 23.8334H18.4167C19.2787 23.8334 20.1053 23.4909 20.7148 22.8815C21.3243 22.272 21.6667 21.4453 21.6667 20.5834V9.75002C21.6667 9.75002 21.6667 9.75002 21.6667 9.68502ZM15.1667 5.86085L17.9725 8.66669H16.25C15.9627 8.66669 15.6872 8.55255 15.484 8.34939C15.2808 8.14622 15.1667 7.87067 15.1667 7.58335V5.86085ZM19.5 20.5834C19.5 20.8707 19.3859 21.1462 19.1827 21.3494C18.9796 21.5526 18.704 21.6667 18.4167 21.6667H7.58337C7.29606 21.6667 7.02051 21.5526 6.81734 21.3494C6.61418 21.1462 6.50004 20.8707 6.50004 20.5834V5.41669C6.50004 5.12937 6.61418 4.85382 6.81734 4.65066C7.02051 4.44749 7.29606 4.33335 7.58337 4.33335H13V7.58335C13 8.44531 13.3424 9.27196 13.9519 9.88145C14.5614 10.4909 15.3881 10.8334 16.25 10.8334H19.5V20.5834Z" fill="#0061FF"/>
</svg>
